<svg width="27" height="20" viewBox="0 0 27 20" fill="none" xmlns="http://www.w3.org/2000/svg">
<g id="Group 9">
<path id="Fill 1" fill-rule="evenodd" clip-rule="evenodd" d="M13.0656 1.768C13.48 1.768 13.8112 2.1 13.8112 2.5144C13.8112 2.928 13.48 3.26 13.0656 3.26C12.6512 3.26 12.32 2.928 12.32 2.5144C12.32 2.1 12.6512 1.768 13.0656 1.768ZM0.912 15.248H25.2192C25.744 15.248 26.1312 14.8336 26.1312 14.336C26.1312 13.8392 25.7168 13.4248 25.2192 13.4248H24.2528C23.9488 8.6464 20.192 4.7232 15.3032 3.7848C15.4968 3.4256 15.6072 3.0112 15.6072 2.5696C15.6072 1.1328 14.4744 0 13.0376 0C11.6016 0 10.4688 1.1328 10.4688 2.5696C10.4688 3.0112 10.58 3.4256 10.7728 3.7848C5.856 4.7232 2.1272 8.6184 1.796 13.4248H0.912C0.3872 13.4248 0 13.8392 0 14.336C0 14.8336 0.3872 15.248 0.912 15.248Z" fill="#0D9DA2"/>
<path id="Fill 4" fill-rule="evenodd" clip-rule="evenodd" d="M25.2192 17.2328H0.9112C0.3864 17.2328 0 17.6472 0 18.1448C0 18.6416 0.3864 19.0832 0.9112 19.0832H25.2192C25.744 19.0832 26.1304 18.6688 26.1304 18.172C26.1304 17.6752 25.744 17.2328 25.2192 17.2328Z" fill="#0D9DA2"/>
</g>
</svg>
