<svg width="24" height="21" viewBox="0 0 24 21" fill="none" xmlns="http://www.w3.org/2000/svg">
<path d="M12 1C12 1 5.1954 6.63667 1.3927 9.68933C1.1694 9.88356 1 10.1664 1 10.5C1 11.0837 1.4917 11.5556 2.1 11.5556H4.3V18.9444C4.3 19.5282 4.7917 20 5.4 20H8.7C9.3083 20 9.8 19.5271 9.8 18.9444V14.7222H14.2V18.9444C14.2 19.5271 14.6917 20 15.3 20H18.6C19.2083 20 19.7 19.5282 19.7 18.9444V11.5556H21.9C22.5083 11.5556 23 11.0837 23 10.5C23 10.1664 22.8306 9.88356 22.5787 9.68933C18.8024 6.63667 12 1 12 1Z" fill="#0D9DA2" stroke="#0D9DA2" stroke-linecap="round" stroke-linejoin="round"/>
</svg>
