<svg width="24" height="20" viewBox="0 0 24 20" fill="none" xmlns="http://www.w3.org/2000/svg">
<g id="Group 19">
<g id="Group 20">
<path id="Vector" d="M8.33903 19.08C9.2711 19.08 10.0267 18.3238 10.0267 17.391C10.0267 16.4581 9.2711 15.7019 8.33903 15.7019C7.40696 15.7019 6.65137 16.4581 6.65137 17.391C6.65137 18.3238 7.40696 19.08 8.33903 19.08Z" fill="#0D9DA2"/>
<path id="Vector_2" d="M17.8595 19.08C18.7916 19.08 19.5472 18.3238 19.5472 17.391C19.5472 16.4581 18.7916 15.7019 17.8595 15.7019C16.9275 15.7019 16.1719 16.4581 16.1719 17.391C16.1719 18.3238 16.9275 19.08 17.8595 19.08Z" fill="#0D9DA2"/>
</g>
<path id="Vector_3" d="M7.65889 11.3294H20.4293C21.0608 11.3294 21.5728 11.8417 21.5728 12.4738C21.5728 13.1059 21.0608 13.6186 20.4293 13.6186H6.86742C6.32963 13.6186 5.85553 13.2666 5.69914 12.7518L5.26785 11.3294L4.92395 10.1945L2.52796 2.28924H1.14351C0.511961 2.28924 0 1.77686 0 1.1448C0 0.51238 0.511961 0 1.14351 0H3.41708C3.89649 0 4.31929 0.314085 4.45869 0.772996L4.91829 2.28924H22.7053C23.5141 2.28924 24.0664 3.10827 23.7636 3.85896L21.4907 9.49478C21.3202 9.91757 20.9101 10.1945 20.4544 10.1945H7.31499L7.65889 11.3294Z" fill="#0D9DA2"/>
</g>
</svg>
