<svg width="40" height="34" viewBox="0 0 40 34" fill="none" xmlns="http://www.w3.org/2000/svg">
<g id="Page 1">
<path id="Fill 1" fill-rule="evenodd" clip-rule="evenodd" d="M28.1498 0.000190735C32.7114 0.000190735 36.4222 3.71091 36.4222 8.27164C36.4222 12.8333 32.7114 16.544 28.1498 16.544H18.6959C18.2001 16.544 17.7751 16.2371 17.5852 15.7875C17.4199 15.3389 17.538 14.8185 17.8931 14.488L20.7047 11.8643C20.1617 10.7536 19.8774 9.52491 19.8774 8.27164C19.8774 3.71091 23.5881 0.000190735 28.1498 0.000190735Z" fill="#7BB8DC"/>
<path id="Fill 3" fill-rule="evenodd" clip-rule="evenodd" d="M36.4218 8.27192C36.4218 12.8336 32.7111 16.5443 28.1494 16.5443V0.000473022C32.7111 0.000473022 36.4218 3.71025 36.4218 8.27192Z" fill="#A4CBEC"/>
<path id="Fill 5" fill-rule="evenodd" clip-rule="evenodd" d="M31.6946 10.6358C31.6946 11.2969 31.1742 11.8173 30.5131 11.8173H25.7861C25.313 11.8173 24.888 11.5339 24.6991 11.0844C24.5102 10.6358 24.6037 10.139 24.9588 9.80844L27.6533 7.09033H25.7861C25.1241 7.09033 24.6037 6.56994 24.6037 5.90883C24.6037 5.24677 25.1241 4.72733 25.7861 4.72733H30.5131C30.9853 4.72733 31.4112 5.01066 31.6001 5.46021C31.79 5.90883 31.6946 6.40466 31.3404 6.73616L28.645 9.45427H30.5131C31.1742 9.45427 31.6946 9.97371 31.6946 10.6358Z" fill="#FEFEFE"/>
<path id="Fill 7" fill-rule="evenodd" clip-rule="evenodd" d="M31.6949 10.6358C31.6949 11.2969 31.1745 11.8173 30.5134 11.8173H28.1494V4.72733H30.5134C30.9856 4.72733 31.4115 5.01066 31.6004 5.46021C31.7902 5.90883 31.6949 6.40466 31.3407 6.73616L28.6452 9.45427H30.5134C31.1745 9.45427 31.6949 9.97371 31.6949 10.6358Z" fill="#FEFEFE"/>
<path id="Fill 9" fill-rule="evenodd" clip-rule="evenodd" d="M38.964 26.0126V30.3901H34.5855L30.208 26.0126H38.964Z" fill="#F9CEA2"/>
<mask id="mask0_263_835" style="mask-type:luminance" maskUnits="userSpaceOnUse" x="0" y="0" width="40" height="34">
<path id="Clip 12" fill-rule="evenodd" clip-rule="evenodd" d="M0 33.7941H39.8386V0H0V33.7941Z" fill="white"/>
</mask>
<g mask="url(#mask0_263_835)">
<path id="Fill 11" fill-rule="evenodd" clip-rule="evenodd" d="M0.875977 30.3903H34.5851V26.0128H0.875977V30.3903Z" fill="#FDE0C3"/>
<path id="Fill 13" fill-rule="evenodd" clip-rule="evenodd" d="M38.087 19.8833V27.7637H34.585L32.834 23.8235L34.585 19.8833H38.087Z" fill="#E0325C"/>
<path id="Fill 14" fill-rule="evenodd" clip-rule="evenodd" d="M34.5859 19.8833V27.7637H20.1387L18.3877 23.8235L20.1387 19.8833H34.5859Z" fill="#6B2346"/>
<path id="Fill 15" fill-rule="evenodd" clip-rule="evenodd" d="M14.0093 15.5056H11.3828L14.8848 21.6341H17.5113V19.0076C17.5113 17.0809 15.935 15.5056 14.0093 15.5056Z" fill="#F49F3B"/>
<path id="Fill 16" fill-rule="evenodd" clip-rule="evenodd" d="M14.8854 19.0076V21.6341H5.25391V19.0076C5.25391 17.0809 6.83018 15.5056 8.75685 15.5056H11.3834C13.3091 15.5056 14.8854 17.0809 14.8854 19.0076Z" fill="#EF532C"/>
<path id="Fill 17" fill-rule="evenodd" clip-rule="evenodd" d="M5.25348 19.8833L7.87998 23.8235L5.25348 27.7637H0.875977V19.8833H5.25348Z" fill="#EF532C"/>
<path id="Fill 18" fill-rule="evenodd" clip-rule="evenodd" d="M20.1382 27.7635H17.5117L15.7598 23.8233L17.5117 19.8831H20.1382V27.7635Z" fill="#F49F3B"/>
<path id="Fill 19" fill-rule="evenodd" clip-rule="evenodd" d="M5.25293 27.7638H17.5109V19.8834H5.25293V27.7638Z" fill="#BE3E27"/>
<path id="Fill 20" fill-rule="evenodd" clip-rule="evenodd" d="M1.31275 8.50066C0.587412 8.50066 -0.000976562 9.08905 -0.000976562 9.81439V33.7938H2.62647V9.81439C2.62647 9.08905 2.03808 8.50066 1.31275 8.50066Z" fill="#F6A675"/>
<path id="Fill 21" fill-rule="evenodd" clip-rule="evenodd" d="M38.5256 15.5056C37.8003 15.5056 37.2119 16.094 37.2119 16.8193V33.7938H39.8394V16.8193C39.8394 16.094 39.251 15.5056 38.5256 15.5056Z" fill="#F6A675"/>
</g>
</g>
</svg>
