<svg width="24" height="24" viewBox="0 0 24 24" fill="none" xmlns="http://www.w3.org/2000/svg">
<g id="heartbeat" clip-path="url(#clip0_377_743)">
<path id="Vector" d="M15.0091 11.4288L12.6794 16.0881C12.3982 16.6553 11.5825 16.6366 11.3247 16.06L8.65753 10.1397L7.25128 13.5006H2.84034L11.395 22.2428C11.7278 22.585 12.2669 22.585 12.5997 22.2428L21.1591 13.5006H16.045L15.0091 11.4288ZM22.2044 3.4647L22.0919 3.34751C19.6778 0.881885 15.7263 0.881885 13.3075 3.34751L11.9997 4.68813L10.6919 3.3522C8.27785 0.881885 4.3216 0.881885 1.90753 3.3522L1.79503 3.4647C-0.48778 5.79907 -0.586217 9.51626 1.45285 12.0006H6.25284L7.93566 7.96001C8.18878 7.35532 9.04191 7.34126 9.31378 7.94126L12.0419 14.0022L14.3388 9.41314C14.6153 8.86001 15.4028 8.86001 15.6794 9.41314L16.9732 12.0006H22.5466C24.5857 9.51626 24.4872 5.79907 22.2044 3.4647Z" fill="#DF2828"/>
</g>
<defs>
<clipPath id="clip0_377_743">
<rect width="24" height="24" fill="white"/>
</clipPath>
</defs>
</svg>
