<svg width="21" height="23" viewBox="0 0 21 23" fill="none" xmlns="http://www.w3.org/2000/svg">
<g id="Layer_1" clip-path="url(#clip0_377_735)">
<path id="Vector" d="M10.3019 9.43788C12.9197 9.43788 15.0419 7.32514 15.0419 4.71894C15.0419 2.11274 12.9197 0 10.3019 0C7.68415 0 5.56201 2.11274 5.56201 4.71894C5.56201 7.32514 7.68415 9.43788 10.3019 9.43788Z" fill="#E7992F"/>
<path id="Vector_2" d="M15.2283 8.4957C14.8947 8.33351 14.4913 8.40302 14.2276 8.65789C13.2191 9.65419 11.8304 10.2721 10.3022 10.2721C8.77392 10.2721 7.49391 9.70053 6.50092 8.78146C6.22941 8.52659 5.81825 8.4648 5.49243 8.64244C2.22645 10.4111 0 13.8634 0 17.8254C0 18.1807 0.023273 18.5205 0.0543037 18.8681C0.108607 19.3856 0.550794 19.7794 1.07056 19.7794C1.67566 19.7794 2.13336 19.2543 2.07905 18.6518C2.04802 18.3815 2.03251 18.1035 2.03251 17.8254C2.03251 16.2344 2.48245 14.7438 3.25822 13.4695C2.72294 14.543 2.41263 15.7556 2.41263 17.0377C2.41263 17.9722 2.57555 18.8681 2.87034 19.7022C3.1884 20.6058 3.86332 21.355 4.73993 21.7566C6.49317 22.5598 8.44034 23.0001 10.4961 23.0001C12.5519 23.0001 14.5068 22.5521 16.2678 21.7489C17.1367 21.355 17.8116 20.6213 18.1297 19.7254C18.7425 18.0185 18.7891 16.0336 18.0366 14.0101C18.0133 13.9561 17.99 13.902 17.9668 13.8557C18.6029 15.0373 18.9675 16.3889 18.9675 17.8254C18.9675 18.1035 18.9675 18.3815 18.9287 18.6518C18.8744 19.2543 19.3321 19.7794 19.9372 19.7794C20.457 19.7794 20.8992 19.3856 20.9535 18.8681C20.9845 18.5205 21 18.1807 21 17.8254C21 13.7475 18.6572 10.2103 15.2283 8.4957Z" fill="#E7992F"/>
</g>
<defs>
<clipPath id="clip0_377_735">
<rect width="21" height="23" fill="white"/>
</clipPath>
</defs>
</svg>
