<svg width="60" height="60" viewBox="0 0 60 60" fill="none" xmlns="http://www.w3.org/2000/svg">
<g id="calculator">
<path id="Vector" d="M48.7451 9.36768C48.7436 7.87631 48.1504 6.44647 47.0959 5.39191C46.0413 4.33736 44.6115 3.74423 43.1201 3.74268H16.8701C15.3787 3.74423 13.9489 4.33736 12.8944 5.39191C11.8398 6.44647 11.2467 7.87631 11.2451 9.36768V50.6177C11.2467 52.109 11.8398 53.5389 12.8944 54.5934C13.9489 55.648 15.3787 56.2411 16.8701 56.2427H43.1201C44.6115 56.2411 46.0413 55.648 47.0959 54.5934C48.1504 53.5389 48.7436 52.109 48.7451 50.6177V9.36768ZM19.6826 50.6177C19.1264 50.6177 18.5826 50.4527 18.1201 50.1437C17.6576 49.8346 17.2971 49.3954 17.0842 48.8815C16.8713 48.3676 16.8156 47.8021 16.9242 47.2565C17.0327 46.7109 17.3005 46.2098 17.6939 45.8164C18.0872 45.4231 18.5884 45.1552 19.1339 45.0467C19.6795 44.9382 20.245 44.9939 20.7589 45.2068C21.2728 45.4196 21.7121 45.7801 22.0211 46.2426C22.3302 46.7051 22.4951 47.2489 22.4951 47.8052C22.4951 48.5511 22.1988 49.2665 21.6714 49.7939C21.1439 50.3214 20.4285 50.6177 19.6826 50.6177ZM19.6826 41.2427C19.1264 41.2427 18.5826 41.0777 18.1201 40.7687C17.6576 40.4596 17.2971 40.0204 17.0842 39.5065C16.8713 38.9926 16.8156 38.4271 16.9242 37.8815C17.0327 37.3359 17.3005 36.8348 17.6939 36.4414C18.0872 36.0481 18.5884 35.7802 19.1339 35.6717C19.6795 35.5632 20.245 35.6189 20.7589 35.8318C21.2728 36.0446 21.7121 36.4051 22.0211 36.8676C22.3302 37.3301 22.4951 37.8739 22.4951 38.4302C22.4951 39.1761 22.1988 39.8915 21.6714 40.4189C21.1439 40.9464 20.4285 41.2427 19.6826 41.2427ZM19.6826 31.8677C19.1264 31.8677 18.5826 31.7027 18.1201 31.3937C17.6576 31.0846 17.2971 30.6454 17.0842 30.1315C16.8713 29.6176 16.8156 29.0521 16.9242 28.5065C17.0327 27.9609 17.3005 27.4598 17.6939 27.0664C18.0872 26.6731 18.5884 26.4052 19.1339 26.2967C19.6795 26.1882 20.245 26.2439 20.7589 26.4568C21.2728 26.6696 21.7121 27.0301 22.0211 27.4926C22.3302 27.9551 22.4951 28.4989 22.4951 29.0552C22.4951 29.8011 22.1988 30.5165 21.6714 31.0439C21.1439 31.5714 20.4285 31.8677 19.6826 31.8677ZM29.9951 50.6177C29.4389 50.6177 28.8951 50.4527 28.4326 50.1437C27.9701 49.8346 27.6096 49.3954 27.3967 48.8815C27.1838 48.3676 27.1281 47.8021 27.2367 47.2565C27.3452 46.7109 27.613 46.2098 28.0064 45.8164C28.3997 45.4231 28.9008 45.1552 29.4464 45.0467C29.992 44.9382 30.5575 44.9939 31.0714 45.2068C31.5853 45.4196 32.0246 45.7801 32.3336 46.2426C32.6427 46.7051 32.8076 47.2489 32.8076 47.8052C32.8076 48.5511 32.5113 49.2665 31.9838 49.7939C31.4564 50.3214 30.741 50.6177 29.9951 50.6177ZM29.9951 41.2427C29.4389 41.2427 28.8951 41.0777 28.4326 40.7687C27.9701 40.4596 27.6096 40.0204 27.3967 39.5065C27.1838 38.9926 27.1281 38.4271 27.2367 37.8815C27.3452 37.3359 27.613 36.8348 28.0064 36.4414C28.3997 36.0481 28.9008 35.7802 29.4464 35.6717C29.992 35.5632 30.5575 35.6189 31.0714 35.8318C31.5853 36.0446 32.0246 36.4051 32.3336 36.8676C32.6427 37.3301 32.8076 37.8739 32.8076 38.4302C32.8076 39.1761 32.5113 39.8915 31.9838 40.4189C31.4564 40.9464 30.741 41.2427 29.9951 41.2427ZM29.9951 31.8677C29.4389 31.8677 28.8951 31.7027 28.4326 31.3937C27.9701 31.0846 27.6096 30.6454 27.3967 30.1315C27.1838 29.6176 27.1281 29.0521 27.2367 28.5065C27.3452 27.9609 27.613 27.4598 28.0064 27.0664C28.3997 26.6731 28.9008 26.4052 29.4464 26.2967C29.992 26.1882 30.5575 26.2439 31.0714 26.4568C31.5853 26.6696 32.0246 27.0301 32.3336 27.4926C32.6427 27.9551 32.8076 28.4989 32.8076 29.0552C32.8076 29.8011 32.5113 30.5165 31.9838 31.0439C31.4564 31.5714 30.741 31.8677 29.9951 31.8677ZM43.1201 47.8052C43.1201 48.5511 42.8238 49.2665 42.2963 49.7939C41.7689 50.3214 41.0535 50.6177 40.3076 50.6177C39.5617 50.6177 38.8463 50.3214 38.3189 49.7939C37.7914 49.2665 37.4951 48.5511 37.4951 47.8052V38.4302C37.4951 37.6843 37.7914 36.9689 38.3189 36.4414C38.8463 35.914 39.5617 35.6177 40.3076 35.6177C41.0535 35.6177 41.7689 35.914 42.2963 36.4414C42.8238 36.9689 43.1201 37.6843 43.1201 38.4302V47.8052ZM40.3076 31.8677C39.7513 31.8677 39.2076 31.7027 38.7451 31.3937C38.2826 31.0846 37.9221 30.6454 37.7092 30.1315C37.4963 29.6176 37.4406 29.0521 37.5492 28.5065C37.6577 27.9609 37.9255 27.4598 38.3189 27.0664C38.7122 26.6731 39.2133 26.4052 39.7589 26.2967C40.3045 26.1882 40.87 26.2439 41.3839 26.4568C41.8978 26.6696 42.3371 27.0301 42.6461 27.4926C42.9552 27.9551 43.1201 28.4989 43.1201 29.0552C43.1201 29.8011 42.8238 30.5165 42.2963 31.0439C41.7689 31.5714 41.0535 31.8677 40.3076 31.8677ZM42.5705 20.0681C42.219 20.4198 41.7423 20.6174 41.2451 20.6177H18.7451C18.2478 20.6177 17.7709 20.4201 17.4193 20.0685C17.0677 19.7169 16.8701 19.24 16.8701 18.7427V11.2427C16.8701 10.7454 17.0677 10.2685 17.4193 9.91685C17.7709 9.56522 18.2478 9.36768 18.7451 9.36768H41.2451C41.7424 9.36768 42.2193 9.56522 42.5709 9.91685C42.9226 10.2685 43.1201 10.7454 43.1201 11.2427V18.7427C43.1199 19.2399 42.9222 19.7166 42.5705 20.0681Z" fill="white"/>
</g>
</svg>
