<svg width="53" height="53" viewBox="0 0 53 53" fill="none" xmlns="http://www.w3.org/2000/svg">
<g id="weight" clip-path="url(#clip0_377_704)">
<path id="Vector" d="M45.624 6.6123H42.9854C44.6531 9.48449 45.624 12.8086 45.624 16.3623C45.624 27.1147 36.8764 35.8623 26.124 35.8623C15.3716 35.8623 6.62402 27.1147 6.62402 16.3623C6.62402 12.8086 7.59496 9.48449 9.26262 6.6123H6.62402C3.03988 6.6123 0.124023 9.52816 0.124023 13.1123V45.6123C0.124023 49.1964 3.03988 52.1123 6.62402 52.1123H45.624C49.2082 52.1123 52.124 49.1964 52.124 45.6123V13.1123C52.124 9.52816 49.2082 6.6123 45.624 6.6123ZM26.124 32.6123C35.0991 32.6123 42.374 25.3374 42.374 16.3623C42.374 7.38723 35.0991 0.112305 26.124 0.112305C17.1489 0.112305 9.87402 7.38723 9.87402 16.3623C9.87402 25.3374 17.1489 32.6123 26.124 32.6123ZM26.0936 17.1809L29.504 9.22246C29.8595 8.3927 30.8182 8.01184 31.6399 8.36832C32.4646 8.72176 32.8464 9.67746 32.494 10.5011L29.0744 18.4789C29.7528 19.2061 30.1865 20.1658 30.1865 21.2373C30.1865 23.4808 28.3675 25.2998 26.124 25.2998C23.8805 25.2998 22.0615 23.4808 22.0615 21.2373C22.0615 19.005 23.8653 17.1982 26.0936 17.1809Z" fill="white"/>
</g>
<defs>
<clipPath id="clip0_377_704">
<rect width="52" height="52" fill="white" transform="translate(0.124023 0.112305)"/>
</clipPath>
</defs>
</svg>
