<svg width="107" height="95" viewBox="0 0 107 95" fill="none" xmlns="http://www.w3.org/2000/svg">
<g id="Vector" style="mix-blend-mode:overlay">
<path d="M82.0736 48.9398L82.0057 49.5H82.57H102.005H102.395L102.49 49.1213C103.418 45.4095 104 41.5158 104 37.5C104 33.4842 103.418 29.5905 102.49 25.8787L102.395 25.5H102.005H82.57H82.0057L82.0736 26.0602C82.5325 29.8462 82.875 33.6188 82.875 37.5C82.875 41.3812 82.5325 45.1538 82.0736 48.9398ZM71.9527 80.7322L71.3445 81.8573L72.5545 81.443C83.2506 77.7808 92.1429 70.3408 97.7222 60.7515L98.1594 60H97.29H80.3275H79.9394L79.8431 60.376C78.0125 67.5267 75.3819 74.3882 71.9527 80.7322ZM70.955 49.5H71.3915L71.4504 49.0676C71.9691 45.2641 72.375 41.4433 72.375 37.5C72.375 33.557 71.9692 29.6789 71.4503 25.9314L71.3905 25.5H70.955H44.045H43.616L43.5508 25.924C42.9726 29.6826 42.625 33.5608 42.625 37.5C42.625 41.4397 42.9727 45.2602 43.5506 49.0749L43.615 49.5H44.045H70.955ZM57.0888 83.5544L57.5 84.149L57.9112 83.5544C62.7101 76.6163 66.5886 68.9199 68.9631 60.6378L69.146 60H68.4825H46.5175H45.854L46.0369 60.6378C48.4115 68.9199 52.2899 76.6163 57.0888 83.5544ZM34.5 15H34.8792L34.9815 14.6348C36.9866 7.47376 39.5616 0.610065 42.9899 -5.73224L43.5951 -6.852L42.3896 -6.44356C31.7504 -2.83904 22.7986 4.60166 17.276 14.2517L16.8478 15H17.71H34.5ZM17.71 60H16.8452L17.2767 60.7495C22.7993 70.3414 31.7503 77.7809 42.3872 81.4428L43.5995 81.8601L42.9899 80.7322C39.5616 74.3899 36.9866 67.5263 34.9815 60.3652L34.8792 60H34.5H17.71ZM12.5099 49.1213L12.6046 49.5H12.995H32.43H32.9943L32.9264 48.9398C32.4675 45.1538 32.125 41.3812 32.125 37.5C32.125 33.6188 32.4675 29.8462 32.9264 26.0602L32.9943 25.5H32.43H12.995H12.6046L12.5099 25.8787C11.582 29.5905 11 33.4842 11 37.5C11 41.5158 11.582 45.4095 12.5099 49.1213ZM57.9112 -8.61192L57.5 -9.20646L57.0888 -8.61192C52.2893 -1.67295 48.4112 6.081 46.0369 14.3622L45.854 15H46.5175H68.4825H69.146L68.9631 14.3622C66.5888 6.081 62.7107 -1.67295 57.9112 -8.61192ZM97.29 15H98.1567L97.7228 14.2497C92.1428 4.6009 83.2495 -2.78116 72.5545 -6.44304L71.3445 -6.85732L71.9527 -5.73224C75.3819 0.611853 78.0125 7.4733 79.8431 14.624L79.9394 15H80.3275H97.29ZM0.5 37.5C0.5 6.15016 25.9796 -19.5 57.5 -19.5C64.9854 -19.5 72.3974 -18.0257 79.313 -15.1611C86.2285 -12.2966 92.5122 -8.09803 97.8051 -2.80509C103.098 2.48785 107.297 8.77149 110.161 15.687C113.026 22.6026 114.5 30.0147 114.5 37.5C114.5 52.6173 108.495 67.1155 97.8051 77.8051C87.1155 88.4947 72.6173 94.5 57.5 94.5C50.0147 94.5 42.6026 93.0257 35.687 90.1611C28.7715 87.2966 22.4879 83.098 17.1949 77.8051C6.50534 67.1155 0.5 52.6173 0.5 37.5Z" stroke="white"/>
</g>
</svg>
