<svg width="50" height="50" viewBox="0 0 50 50" fill="none" xmlns="http://www.w3.org/2000/svg">
<g id="Sport / Weight Lifting" clip-path="url(#clip0_296_1499)">
<path id="Vector" d="M42.8543 30.9583L44.3543 29.4583C45.1668 28.6458 45.1668 27.3333 44.3543 26.5208L44.3127 26.4791C43.5002 25.6666 42.1877 25.6666 41.3752 26.4791L35.4168 32.4374L17.5627 14.5833L23.521 8.62492C24.3335 7.81242 24.3335 6.49992 23.521 5.68742L23.4793 5.64575C22.6668 4.83325 21.3543 4.83325 20.5418 5.64575L19.0418 7.14575L17.5418 5.64575C16.7293 4.83325 15.396 4.83325 14.5835 5.64575L11.6043 8.62492L10.1043 7.12492C9.29183 6.31242 7.93766 6.31242 7.12516 7.12492C6.31266 7.93742 6.31266 9.29159 7.12516 10.1041L8.62516 11.6041L5.646 14.5833C4.8335 15.3958 4.8335 16.7083 5.646 17.5208L7.146 19.0208L5.646 20.5416C4.8335 21.3541 4.8335 22.6666 5.646 23.4791L5.68766 23.5208C6.50016 24.3333 7.81266 24.3333 8.62516 23.5208L14.5835 17.5624L32.4377 35.4166L26.4793 41.3749C25.6668 42.1874 25.6668 43.4999 26.4793 44.3124L26.521 44.3541C27.3335 45.1666 28.646 45.1666 29.4585 44.3541L30.9585 42.8541L32.4585 44.3541C33.271 45.1666 34.5835 45.1666 35.396 44.3541L38.3752 41.3749L39.8752 42.8749C40.6877 43.6874 42.0418 43.6874 42.8543 42.8749C43.6668 42.0624 43.6668 40.7083 42.8543 39.8958L41.3543 38.3958L44.3543 35.4166C45.1668 34.6041 45.1668 33.2916 44.3543 32.4791L42.8543 30.9583Z" fill="white"/>
</g>
<defs>
<clipPath id="clip0_296_1499">
<rect width="50" height="50" fill="white"/>
</clipPath>
</defs>
</svg>
