<svg width="50" height="50" viewBox="0 0 50 50" fill="none" xmlns="http://www.w3.org/2000/svg">
<g id="cutlery 4">
<g id="cutlery 4_2">
<g id="Group">
<path id="Vector" d="M41.0938 3.125V31.5625H30.625V13.5938C30.625 10.8173 31.7279 8.15448 33.6912 6.19121C35.6545 4.22793 38.3173 3.125 41.0938 3.125Z" fill="white" stroke="white" stroke-width="2" stroke-linecap="round" stroke-linejoin="round"/>
<path id="Vector_2" d="M35 31.4062H41.0938V44.5312C41.0938 45.3186 40.781 46.0737 40.2242 46.6305C39.6675 47.1872 38.9124 47.5 38.125 47.5H37.9688C37.1814 47.5 36.4263 47.1872 35.8696 46.6305C35.3128 46.0737 35 45.3186 35 44.5312V31.4062Z" fill="white" stroke="white" stroke-width="2" stroke-linecap="round" stroke-linejoin="round"/>
</g>
<g id="Group_2">
<path id="Vector_3" d="M15 47.5C14.0469 47.5 13.1328 47.1214 12.4588 46.4474C11.7849 45.7735 11.4063 44.8594 11.4062 43.9062L12.9688 24.375H17.1875L18.75 43.9062C18.7504 44.3916 18.6526 44.8721 18.4623 45.3186C18.272 45.7651 17.9932 46.1685 17.6428 46.5043C17.2923 46.8401 16.8775 47.1015 16.4233 47.2726C15.9691 47.4438 15.4849 47.5211 15 47.5Z" fill="white" stroke="white" stroke-width="2" stroke-linecap="round" stroke-linejoin="round"/>
<path id="Vector_4" d="M22.0313 17.3438C21.7779 19.0481 20.9206 20.6048 19.6157 21.7301C18.3108 22.8554 16.645 23.4744 14.9219 23.4744C13.1988 23.4744 11.533 22.8554 10.2281 21.7301C8.92313 20.6048 8.06587 19.0481 7.8125 17.3438H22.0313Z" fill="white" stroke="white" stroke-width="2" stroke-linecap="round" stroke-linejoin="round"/>
<path id="Vector_5" d="M7.8125 4.375V17.3438" stroke="white" stroke-width="2" stroke-linecap="round" stroke-linejoin="round"/>
<path id="Vector_6" d="M14.8438 4.375V17.0313" stroke="white" stroke-width="2" stroke-linecap="round" stroke-linejoin="round"/>
<path id="Vector_7" d="M22.0312 4.375V17.3438" stroke="white" stroke-width="2" stroke-linecap="round" stroke-linejoin="round"/>
</g>
</g>
</g>
</svg>
