<svg width="19" height="19" viewBox="0 0 19 19" fill="none" xmlns="http://www.w3.org/2000/svg">
<path id="Vector" d="M9.5 0.5C10.6272 0.5 11.7082 0.947766 12.5052 1.7448C13.3022 2.54183 13.75 3.62283 13.75 4.75C13.75 5.87717 13.3022 6.95817 12.5052 7.7552C11.7082 8.55223 10.6272 9 9.5 9C8.37283 9 7.29183 8.55223 6.4948 7.7552C5.69777 6.95817 5.25 5.87717 5.25 4.75C5.25 3.62283 5.69777 2.54183 6.4948 1.7448C7.29183 0.947766 8.37283 0.5 9.5 0.5ZM9.5 12.375C12.0636 12.375 14.3589 12.8952 15.9947 13.7131C17.6603 14.5459 18.5 15.6041 18.5 16.625V18.5H0.5V16.625C0.5 15.6041 1.33975 14.5459 3.00533 13.7131C4.64113 12.8952 6.93635 12.375 9.5 12.375Z" stroke="#7D7D7D"/>
</svg>
