<svg width="26" height="21" viewBox="0 0 26 21" fill="none" xmlns="http://www.w3.org/2000/svg">
<g id="Group 19">
<g id="Group 20">
<path id="Vector" d="M9.33903 20.08C10.2711 20.08 11.0267 19.3238 11.0267 18.391C11.0267 17.4581 10.2711 16.7019 9.33903 16.7019C8.40696 16.7019 7.65137 17.4581 7.65137 18.391C7.65137 19.3238 8.40696 20.08 9.33903 20.08Z" stroke="#7D7D7D" stroke-miterlimit="10"/>
<path id="Vector_2" d="M18.8595 20.08C19.7916 20.08 20.5472 19.3238 20.5472 18.391C20.5472 17.4581 19.7916 16.7019 18.8595 16.7019C17.9275 16.7019 17.1719 17.4581 17.1719 18.391C17.1719 19.3238 17.9275 20.08 18.8595 20.08Z" stroke="#7D7D7D" stroke-miterlimit="10"/>
</g>
<path id="Vector_3" d="M8.65889 12.3294H21.4293C22.0608 12.3294 22.5728 12.8417 22.5728 13.4738C22.5728 14.1059 22.0608 14.6186 21.4293 14.6186H7.86742C7.32963 14.6186 6.85553 14.2666 6.69914 13.7518L6.26785 12.3294L5.92395 11.1945L3.52796 3.28924H2.14351C1.51196 3.28924 1 2.77686 1 2.1448C1 1.51238 1.51196 1 2.14351 1H4.41708C4.89649 1 5.31929 1.31408 5.45869 1.773L5.91829 3.28924H23.7053C24.5141 3.28924 25.0664 4.10827 24.7636 4.85896L22.4907 10.4948C22.3202 10.9176 21.9101 11.1945 21.4544 11.1945H8.31499L8.65889 12.3294Z" stroke="#7D7D7D" stroke-miterlimit="10"/>
</g>
</svg>
