<svg width="28" height="21" viewBox="0 0 28 21" fill="none" xmlns="http://www.w3.org/2000/svg">
<g id="Group 9">
<path id="Fill 1" d="M25.2528 14.4248L24.7538 14.4565L24.7836 14.9248H25.2528V14.4248ZM16.3032 4.7848L15.8631 4.54757L15.5398 5.14739L16.2089 5.27584L16.3032 4.7848ZM11.7728 4.7848L11.8665 5.27594L12.5354 5.14828L12.2134 4.54834L11.7728 4.7848ZM2.796 14.4248V14.9248H3.26273L3.29482 14.4592L2.796 14.4248ZM14.0656 3.268C14.2032 3.268 14.3112 3.37544 14.3112 3.5144H15.3112C15.3112 2.82456 14.7568 2.268 14.0656 2.268V3.268ZM14.3112 3.5144C14.3112 3.65221 14.2035 3.76 14.0656 3.76V4.76C14.7565 4.76 15.3112 4.20379 15.3112 3.5144H14.3112ZM14.0656 3.76C13.9277 3.76 13.82 3.65221 13.82 3.5144H12.82C12.82 4.20379 13.3747 4.76 14.0656 4.76V3.76ZM13.82 3.5144C13.82 3.37544 13.928 3.268 14.0656 3.268V2.268C13.3744 2.268 12.82 2.82456 12.82 3.5144H13.82ZM1.912 16.748H26.2192V15.748H1.912V16.748ZM26.2192 16.748C27.0299 16.748 27.6312 16.0999 27.6312 15.336H26.6312C26.6312 15.5673 26.4581 15.748 26.2192 15.748V16.748ZM27.6312 15.336C27.6312 14.5628 26.9927 13.9248 26.2192 13.9248V14.9248C26.4409 14.9248 26.6312 15.1156 26.6312 15.336H27.6312ZM26.2192 13.9248H25.2528V14.9248H26.2192V13.9248ZM25.7518 14.3931C25.4317 9.36209 21.4844 5.27019 16.3975 4.29376L16.2089 5.27584C20.8996 6.17621 24.4659 9.93071 24.7538 14.4565L25.7518 14.3931ZM16.7433 5.02203C16.9756 4.59105 17.1072 4.09528 17.1072 3.5696H16.1072C16.1072 3.92712 16.018 4.26015 15.8631 4.54757L16.7433 5.02203ZM17.1072 3.5696C17.1072 1.85666 15.7505 0.5 14.0376 0.5V1.5C15.1983 1.5 16.1072 2.40894 16.1072 3.5696H17.1072ZM14.0376 0.5C12.3254 0.5 10.9688 1.85676 10.9688 3.5696H11.9688C11.9688 2.40884 12.8778 1.5 14.0376 1.5V0.5ZM10.9688 3.5696C10.9688 4.09589 11.1015 4.59129 11.3323 5.02126L12.2134 4.54834C12.0585 4.25991 11.9688 3.92651 11.9688 3.5696H10.9688ZM11.6791 4.29367C6.56298 5.2701 2.6456 9.33412 2.29718 14.3904L3.29482 14.4592C3.6088 9.90268 7.14902 6.1763 11.8665 5.27594L11.6791 4.29367ZM2.796 13.9248H1.912V14.9248H2.796V13.9248ZM1.912 13.9248C1.10162 13.9248 0.5 14.5726 0.5 15.336H1.5C1.5 15.1058 1.67278 14.9248 1.912 14.9248V13.9248ZM0.5 15.336C0.5 16.0999 1.10134 16.748 1.912 16.748V15.748C1.67306 15.748 1.5 15.5673 1.5 15.336H0.5Z" fill="#7D7D7D"/>
<path id="Fill 4" d="M26.2192 18.2328H1.9112C1.3864 18.2328 1 18.6472 1 19.1448C1 19.6416 1.3864 20.0832 1.9112 20.0832H26.2192C26.744 20.0832 27.1304 19.6688 27.1304 19.172C27.1304 18.6752 26.744 18.2328 26.2192 18.2328" stroke="#7D7D7D"/>
</g>
</svg>
