<svg width="26" height="36" viewBox="0 0 26 36" fill="none" xmlns="http://www.w3.org/2000/svg">
<g id="noun_calories_1180285">
<path id="Shape" fill-rule="evenodd" clip-rule="evenodd" d="M18.9062 10.62C11.0505 5.40643 14.6055 0.334286 14.6055 0.334286C6.96833 4.73143 5.27762 11.4429 7.14833 19.9286C4.3969 17.6979 3.99833 15.0557 4.08833 11.5714C0.584762 15.3193 -0.0452378 19.2857 0.186191 23.58C0.527877 30.391 6.16936 35.7268 12.9888 35.6889C19.8083 35.6511 25.3902 30.2529 25.6562 23.4386C25.9262 17.8264 23.5476 13.6993 18.9062 10.62ZM13.7633 32.7343C12.0087 32.7404 10.292 32.2234 8.83262 31.2493C9.17976 31.2836 9.52691 31.3007 9.87405 31.3007C16.1378 31.2724 21.2035 26.1923 21.214 19.9286C21.214 19.5814 21.1969 19.2343 21.1626 18.8871C22.1378 20.3351 22.6613 22.04 22.6669 23.7857C22.6703 26.1556 21.7322 28.4298 20.0588 30.108C18.3854 31.7862 16.1139 32.7309 13.744 32.7343H13.7633Z" fill="url(#paint0_linear_263_796)"/>
</g>
<defs>
<linearGradient id="paint0_linear_263_796" x1="0.143555" y1="0.334286" x2="0.143555" y2="35.6891" gradientUnits="userSpaceOnUse">
<stop stop-color="#26C8A8"/>
<stop offset="1" stop-color="#00BBCA"/>
</linearGradient>
</defs>
</svg>
