<svg width="24" height="39" viewBox="0 0 24 39" fill="none" xmlns="http://www.w3.org/2000/svg">
<g id="noun_Walk_1826969">
<g id="Group">
<path id="Path" fill-rule="evenodd" clip-rule="evenodd" d="M6.63376 26.5361L9.89046 29.7928L7.07603 37.3918C6.75438 38.2361 5.95025 38.7588 5.10592 38.7588C4.86469 38.7588 4.62345 38.7186 4.38221 38.6381C3.29664 38.2361 2.73376 37.0299 3.13582 35.9443L6.63376 26.5361Z" fill="url(#paint0_linear_263_857)"/>
<path id="Path_2" fill-rule="evenodd" clip-rule="evenodd" d="M0.56245 18.2134L2.49235 14.5144C3.01503 13.5495 3.77894 12.7454 4.70369 12.1825C9.16657 9.52887 9.72946 9.56907 10.2923 9.60928L13.3078 9.81031C14.2326 9.85052 14.8759 10.0918 17.9717 14.6351C18.0923 14.7959 18.2532 14.9165 18.4944 14.9567L22.1934 15.5196C23.1985 15.6804 23.882 16.6052 23.7212 17.6103C23.5604 18.6155 22.6356 19.299 21.6305 19.1381L17.9315 18.5753C16.7253 18.3742 15.6398 17.7309 14.9563 16.7258C14.7954 16.4845 14.6748 16.2835 14.514 16.0825L12.1418 23.601L15.4387 26.8979C15.9212 27.3804 16.3233 28.0237 16.5645 28.667L19.0975 36.065C19.4996 37.1505 18.8965 38.3567 17.8109 38.7186C17.5697 38.799 17.3686 38.8392 17.1274 38.8392C16.2429 38.8392 15.4387 38.2763 15.1171 37.432L12.5841 30.034C12.5439 29.9536 12.5037 29.9134 12.4635 29.833L6.59338 23.9227C5.74905 23.0784 5.4274 21.9124 5.66864 20.7866L6.95523 15.0773C6.83462 15.1577 6.714 15.2381 6.55317 15.3186C6.19132 15.5196 5.90987 15.8412 5.70884 16.2031L3.77894 19.9021C3.4573 20.5052 2.814 20.867 2.1707 20.867C1.88925 20.867 1.60781 20.7866 1.32637 20.666C0.441831 20.1835 0.120182 19.0979 0.56245 18.2134Z" fill="url(#paint1_linear_263_857)"/>
<circle id="Oval" cx="12.4196" cy="4.64431" r="4.06071" transform="rotate(-83.7883 12.4196 4.64431)" fill="url(#paint2_linear_263_857)"/>
</g>
</g>
<defs>
<linearGradient id="paint0_linear_263_857" x1="3.00586" y1="26.5361" x2="3.00586" y2="38.7588" gradientUnits="userSpaceOnUse">
<stop stop-color="#26C8A8"/>
<stop offset="1" stop-color="#00BBCA"/>
</linearGradient>
<linearGradient id="paint1_linear_263_857" x1="0.365234" y1="9.59946" x2="0.365234" y2="38.8392" gradientUnits="userSpaceOnUse">
<stop stop-color="#26C8A8"/>
<stop offset="1" stop-color="#00BBCA"/>
</linearGradient>
<linearGradient id="paint2_linear_263_857" x1="8.3589" y1="0.583599" x2="8.3589" y2="8.70501" gradientUnits="userSpaceOnUse">
<stop stop-color="#26C8A8"/>
<stop offset="1" stop-color="#00BBCA"/>
</linearGradient>
</defs>
</svg>
