<svg width="23" height="33" viewBox="0 0 23 33" fill="none" xmlns="http://www.w3.org/2000/svg">
<g id="Group 24">
<g id="Page 1 Copy 14">
<path id="Fill 1" fill-rule="evenodd" clip-rule="evenodd" d="M15.9577 30.0791C15.6488 30.3949 15.3399 30.5495 15.0144 30.5495H7.12831C6.80727 30.5495 6.50221 30.3962 6.19523 30.0836C4.29389 28.1405 2.76413 11.4658 2.29087 4.9907C2.89715 5.37441 3.48041 5.5737 4.07389 5.60088C4.8893 5.63647 5.69959 5.33753 6.52715 4.68659C7.33744 5.32782 8.12087 5.64164 8.90878 5.64164C8.91709 5.64164 8.92605 5.641 8.935 5.641C9.72994 5.63453 10.5249 5.30841 11.3544 4.64647C12.1723 5.29417 12.9897 5.59764 13.759 5.59959C14.5533 5.59247 15.3476 5.267 16.1765 4.60765C16.9835 5.26182 17.6922 5.55882 18.4231 5.55882H18.4468C19.0038 5.55429 19.55 5.37441 20.1397 4.99717C19.6709 11.4645 17.8635 28.1295 15.9577 30.0791ZM20.6474 0.00705661L1.78052 -6.10352e-05C0.741918 -6.10352e-05 -0.077326 0.893527 0.00581352 1.94112C0.738721 11.1611 2.57866 29.6372 4.82727 31.9342C5.21674 32.3328 5.60558 32.5269 6.01424 32.5269H16.0511C16.4649 32.5269 16.8576 32.3302 17.2509 31.9284C19.5033 29.6249 21.647 11.1675 22.4202 1.9547C22.5085 0.905821 21.6886 0.00705661 20.6474 0.00705661Z" fill="#82C7B3"/>
<path id="Fill 1_2" fill-rule="evenodd" clip-rule="evenodd" d="M15.9577 30.0791C15.6488 30.3949 15.3399 30.5495 15.0144 30.5495H7.12831C6.80727 30.5495 6.50221 30.3962 6.19523 30.0836C4.29389 28.1405 2.76413 11.4658 2.29087 4.9907C2.89715 5.37441 3.48041 5.5737 4.07389 5.60088C4.8893 5.63647 5.69959 5.33753 6.52715 4.68659C7.33744 5.32782 8.12087 5.64164 8.90878 5.64164C8.91709 5.64164 8.92605 5.641 8.935 5.641C9.72994 5.63453 10.5249 5.30841 11.3544 4.64647C12.1723 5.29417 12.9897 5.59764 13.759 5.59959C14.5533 5.59247 15.3476 5.267 16.1765 4.60765C16.9835 5.26182 17.6922 5.55882 18.4231 5.55882H18.4468C19.0038 5.55429 19.55 5.37441 20.1397 4.99717C19.6709 11.4645 17.8635 28.1295 15.9577 30.0791ZM20.6474 0.00705661L1.78052 -6.10352e-05C0.741918 -6.10352e-05 -0.077326 0.893527 0.00581352 1.94112C0.738721 11.1611 2.57866 29.6372 4.82727 31.9342C5.21674 32.3328 5.60558 32.5269 6.01424 32.5269H16.0511C16.4649 32.5269 16.8576 32.3302 17.2509 31.9284C19.5033 29.6249 21.647 11.1675 22.4202 1.9547C22.5085 0.905821 21.6886 0.00705661 20.6474 0.00705661Z" fill="#7EC3FD"/>
<mask id="mask0_263_805" style="mask-type:luminance" maskUnits="userSpaceOnUse" x="0" y="0" width="23" height="33">
<path id="Fill 1_3" fill-rule="evenodd" clip-rule="evenodd" d="M15.9577 30.0791C15.6488 30.3949 15.3399 30.5495 15.0144 30.5495H7.12831C6.80727 30.5495 6.50221 30.3962 6.19523 30.0836C4.29389 28.1405 2.76413 11.4658 2.29087 4.9907C2.89715 5.37441 3.48041 5.5737 4.07389 5.60088C4.8893 5.63647 5.69959 5.33753 6.52715 4.68659C7.33744 5.32782 8.12087 5.64164 8.90878 5.64164C8.91709 5.64164 8.92605 5.641 8.935 5.641C9.72994 5.63453 10.5249 5.30841 11.3544 4.64647C12.1723 5.29417 12.9897 5.59764 13.759 5.59959C14.5533 5.59247 15.3476 5.267 16.1765 4.60765C16.9835 5.26182 17.6922 5.55882 18.4231 5.55882H18.4468C19.0038 5.55429 19.55 5.37441 20.1397 4.99717C19.6709 11.4645 17.8635 28.1295 15.9577 30.0791ZM20.6474 0.00705661L1.78052 -6.10352e-05C0.741918 -6.10352e-05 -0.077326 0.893527 0.00581352 1.94112C0.738721 11.1611 2.57866 29.6372 4.82727 31.9342C5.21674 32.3328 5.60558 32.5269 6.01424 32.5269H16.0511C16.4649 32.5269 16.8576 32.3302 17.2509 31.9284C19.5033 29.6249 21.647 11.1675 22.4202 1.9547C22.5085 0.905821 21.6886 0.00705661 20.6474 0.00705661Z" fill="white"/>
</mask>
<g mask="url(#mask0_263_805)">
<rect id="Rectangle 3" x="-1" width="12" height="33" fill="#1777E4"/>
</g>
</g>
</g>
</svg>
