<svg width="30" height="37" viewBox="0 0 30 37" fill="none" xmlns="http://www.w3.org/2000/svg">
<g id="Group 65">
<path id="Vector" d="M14.8735 9.1009C17.3137 9.1009 19.2918 7.08873 19.2918 4.6066C19.2918 2.12447 17.3137 0.112305 14.8735 0.112305C12.4333 0.112305 10.4551 2.12447 10.4551 4.6066C10.4551 7.08873 12.4333 9.1009 14.8735 9.1009Z" fill="url(#paint0_linear_377_716)"/>
<path id="Vector_2" d="M28.2005 15.562C25.2722 14.1113 22.304 12.6606 19.2918 11.34C19.2878 11.34 19.2798 11.3359 19.2718 11.3319C16.4953 10.1331 13.3553 10.1372 10.5789 11.3319C10.5309 11.3522 10.487 11.3725 10.455 11.3847C7.47482 12.6932 4.54255 14.1276 1.64223 15.562C-0.614897 16.773 0.891188 20.1904 3.28415 19.268C5.69308 18.2602 8.08205 17.2159 10.455 16.135V22.2222C10.455 23.0552 10.3032 23.8842 10.0036 24.6603C9.87576 24.9895 9.74793 25.3227 9.62009 25.6518C8.61736 28.2972 7.65459 30.9589 6.81166 33.6652C6.52003 34.612 6.9395 35.6604 7.84235 36.1114C8.83708 36.6031 10.0356 36.1846 10.5229 35.1728C11.1382 33.8968 11.7174 32.6087 12.2847 31.3124C12.9718 29.6788 13.6669 28.0575 14.3261 26.4158C14.3421 26.3752 14.3621 26.3305 14.382 26.2817C14.5818 25.7859 15.2689 25.7859 15.4687 26.2817C15.4886 26.3305 15.5046 26.3752 15.5246 26.4158C16.1837 28.0575 16.8829 29.6788 17.566 31.3124C18.1333 32.6087 18.7125 33.8968 19.3277 35.1728C19.8111 36.1846 21.0096 36.6031 22.0043 36.1114C22.9072 35.6604 23.3307 34.612 23.035 33.6652C22.1961 30.9589 21.2333 28.2972 20.2306 25.6518C20.0748 25.2496 19.923 24.8473 19.7672 24.449C19.4596 23.6566 19.2958 22.8114 19.2958 21.9621V16.0903C21.7007 17.1915 24.1256 18.2521 26.5665 19.2721C28.9595 20.1945 30.4656 16.777 28.2045 15.5661L28.2005 15.562Z" fill="url(#paint1_linear_377_716)"/>
<path id="Vector_3" d="M27.3017 21.1086H22.376C22.1842 20.8201 21.8566 20.6292 21.4891 20.6292C20.8978 20.6292 20.4185 21.1168 20.4185 21.7182C20.4185 22.3196 20.8978 22.8072 21.4891 22.8072C21.8566 22.8072 22.1842 22.6162 22.376 22.3277H27.3017C27.6333 22.3277 27.9009 22.0555 27.9009 21.7182C27.9009 21.3809 27.6333 21.1086 27.3017 21.1086Z" fill="url(#paint2_linear_377_716)"/>
<path id="Vector_4" d="M0.751582 10.4907H5.67732C5.86907 10.2022 6.19666 10.0112 6.56419 10.0112C7.15544 10.0112 7.63483 10.4989 7.63483 11.1003C7.63483 11.7017 7.15544 12.1893 6.56419 12.1893C6.19666 12.1893 5.86907 11.9983 5.67732 11.7098H0.751582C0.420003 11.7098 0.152344 11.4375 0.152344 11.1003C0.152344 10.763 0.420003 10.4907 0.751582 10.4907Z" fill="url(#paint3_linear_377_716)"/>
<path id="Vector_5" d="M0.751582 26.6758H5.67732C5.86907 26.3873 6.19666 26.1963 6.56419 26.1963C7.15544 26.1963 7.63483 26.6839 7.63483 27.2853C7.63483 27.8867 7.15544 28.3744 6.56419 28.3744C6.19666 28.3744 5.86907 28.1834 5.67732 27.8949H0.751582C0.420003 27.8949 0.152344 27.6226 0.152344 27.2853C0.152344 26.948 0.420003 26.6758 0.751582 26.6758Z" fill="url(#paint4_linear_377_716)"/>
</g>
<defs>
<linearGradient id="paint0_linear_377_716" x1="17.6152" y1="9.59954" x2="13.603" y2="-1.11989" gradientUnits="userSpaceOnUse">
<stop stop-color="#26C8A8"/>
<stop offset="1" stop-color="#00BBCA"/>
</linearGradient>
<linearGradient id="paint1_linear_377_716" x1="23.8562" y1="37.7532" x2="13.3614" y2="6.0341" gradientUnits="userSpaceOnUse">
<stop stop-color="#26C8A8"/>
<stop offset="1" stop-color="#00BBCA"/>
</linearGradient>
<linearGradient id="paint2_linear_377_716" x1="26.4813" y1="22.928" x2="26.1677" y2="20.0003" gradientUnits="userSpaceOnUse">
<stop stop-color="#26C8A8"/>
<stop offset="1" stop-color="#00BBCA"/>
</linearGradient>
<linearGradient id="paint3_linear_377_716" x1="6.21517" y1="12.3101" x2="5.90156" y2="9.38234" gradientUnits="userSpaceOnUse">
<stop stop-color="#26C8A8"/>
<stop offset="1" stop-color="#00BBCA"/>
</linearGradient>
<linearGradient id="paint4_linear_377_716" x1="6.21517" y1="28.4952" x2="5.90156" y2="25.5674" gradientUnits="userSpaceOnUse">
<stop stop-color="#26C8A8"/>
<stop offset="1" stop-color="#00BBCA"/>
</linearGradient>
</defs>
</svg>
