<svg width="60" height="60" viewBox="0 0 60 60" fill="none" xmlns="http://www.w3.org/2000/svg">
<g id="Sport / Running" clip-path="url(#clip0_370_690)">
<path id="Vector" d="M33.7249 13.7C36.4749 13.7 38.7249 11.45 38.7249 8.69995C38.7249 5.94995 36.4749 3.69995 33.7249 3.69995C30.9749 3.69995 28.7249 5.94995 28.7249 8.69995C28.7249 11.45 30.9749 13.7 33.7249 13.7ZM25.7999 43.7L27.2249 37.45L32.4749 42.45V54.95C32.4749 56.325 33.5999 57.45 34.9749 57.45C36.3499 57.45 37.4749 56.325 37.4749 54.95V40.85C37.4749 39.475 36.9249 38.1749 35.9249 37.225L32.2249 33.7L33.7249 26.2C36.3999 29.3 40.2749 31.525 44.6249 32.225C46.1249 32.45 47.4749 31.25 47.4749 29.725C47.4749 28.5 46.5749 27.475 45.3498 27.275C41.5499 26.65 38.3999 24.4 36.7249 21.45L34.2249 17.45C33.2249 15.95 31.7249 14.95 29.9749 14.95C29.2249 14.95 28.7249 15.2 27.9749 15.2L18.0249 19.4C16.1749 20.2 14.9749 21.9999 14.9749 24.0249V29.95C14.9749 31.325 16.0999 32.45 17.4749 32.45C18.8499 32.45 19.9749 31.325 19.9749 29.95V23.95L24.4749 22.2L20.4749 42.45L10.6749 40.45C9.32486 40.175 7.99986 41.0499 7.72486 42.3999V42.5C7.44986 43.85 8.32486 45.175 9.67486 45.45L19.9499 47.5C22.5999 48.025 25.1999 46.35 25.7999 43.7Z" fill="white"/>
</g>
<defs>
<clipPath id="clip0_370_690">
<rect width="60" height="60" fill="white"/>
</clipPath>
</defs>
</svg>
